<svg width="97" height="19" viewBox="0 0 97 19" fill="none" xmlns="http://www.w3.org/2000/svg">
<path d="M24.5415 7.58453L18.0193 1.06229C17.7938 0.852934 17.4556 0.852934 17.2463 1.06229L15.9579 2.35063L21.1918 7.58453C21.4012 7.79389 21.4012 8.14818 21.1918 8.35754L15.7969 13.7525L17.0852 15.0408C17.3107 15.2502 17.6489 15.2502 17.8582 15.0408L24.5254 8.37364C24.7509 8.14818 24.7509 7.80999 24.5415 7.58453Z" fill="#009C9C"/>
<path d="M13.4268 1.54689L12.9598 1.07987C12.7343 0.870513 12.3961 0.870513 12.1868 1.07987L10.8984 2.36821L11.752 3.22174L13.4268 4.89659L15.1017 3.22174L13.4268 1.54689Z" fill="#40E3E3"/>
<path d="M13.2784 11.2402L11.6035 12.9151L10.75 13.7686L12.0383 15.0569C12.2638 15.2663 12.602 15.2663 12.8113 15.0569L13.2784 14.5899L14.9532 12.9151L13.2784 11.2402Z" fill="#40E3E3"/>
<path d="M16.148 7.58532C16.3574 7.81078 16.3574 8.14897 16.148 8.35833L13.2815 11.2249L14.9563 12.8997L19.4977 8.35833C19.7071 8.14897 19.7071 7.79468 19.4977 7.58532L15.1174 3.20496L13.4264 4.8798L16.148 7.58532Z" fill="#1ABAB8"/>
<path d="M5.50283 7.74557L10.0442 3.20416L8.36939 1.52931L7.88626 1.06229C7.6608 0.852934 7.32261 0.852934 7.11326 1.06229L0.446079 7.74557C0.236724 7.95493 0.236724 8.30923 0.446079 8.51858L6.96832 15.0408C7.19378 15.2502 7.53197 15.2502 7.74132 15.0408L8.22445 14.5738L9.8993 12.8989L5.51893 8.51858C5.29347 8.30923 5.29347 7.97103 5.50283 7.74557Z" fill="#87F0F0"/>
<path d="M10.557 7.74601L12.554 5.74908L10.8791 4.07423L10.0256 3.2207L5.51639 7.76212C5.30704 7.97147 5.30704 8.32576 5.51639 8.53512L9.88066 12.8994L10.7342 12.0459L12.409 10.371L10.557 8.51902C10.3477 8.32577 10.3477 7.97147 10.557 7.74601Z" fill="#40E3E3"/>
<path d="M10.559 8.51994L12.411 10.3719L14.4079 8.375C14.6173 8.16564 14.6173 7.81135 14.4079 7.60199L12.5559 5.75L10.559 7.74693C10.3657 7.97239 10.3657 8.31058 10.559 8.51994Z" fill="#17CFCF"/>
<path d="M29.7666 6.21677C29.7827 5.47597 29.9276 4.75128 30.2014 4.05879C30.4591 3.43072 30.8456 2.85097 31.3287 2.38395C31.8601 1.90082 32.4882 1.53042 33.1646 1.30496C33.9859 1.03118 34.8555 0.90235 35.7091 0.918455C36.6753 0.886246 37.6416 1.03119 38.5434 1.35327C39.1876 1.59484 39.7996 1.94913 40.3149 2.41615C40.7175 2.77045 41.0235 3.20527 41.2328 3.68839C41.3939 4.04269 41.4905 4.41309 41.5388 4.79959C41.5549 4.94453 41.5066 5.08947 41.3939 5.18609C41.2812 5.28272 41.1523 5.33103 41.0074 5.33103H39.4131C39.2842 5.33103 39.1715 5.29882 39.0749 5.2183C38.9943 5.15389 38.9299 5.07336 38.8977 4.99284C38.8655 4.94453 38.8011 4.8318 38.6884 4.65465C38.5434 4.4453 38.3663 4.25204 38.1569 4.1071C37.867 3.89775 37.545 3.7206 37.2068 3.59177C36.7397 3.43073 36.2244 3.3502 35.7252 3.36631C34.8716 3.318 34.0181 3.60787 33.3578 4.15542C32.762 4.70296 32.4238 5.47597 32.4077 6.29729C32.3755 6.79652 32.3755 7.32796 32.3755 7.90772C32.3755 8.47137 32.3755 9.01891 32.4077 9.51815C32.4399 10.6132 32.762 11.4024 33.3578 11.8855C34.0342 12.4008 34.8716 12.6585 35.7091 12.6263C36.16 12.6263 36.6109 12.578 37.0457 12.4652C37.4322 12.3686 37.7865 12.1915 38.0925 11.9499C38.3985 11.7083 38.64 11.3862 38.785 11.0158C38.9621 10.5649 39.0427 10.0818 39.0266 9.59867V9.43762H36.627C36.4821 9.43762 36.3532 9.38931 36.2566 9.27658C36.16 9.17996 36.0956 9.05112 36.0956 8.90618V7.50511C36.0956 7.21523 36.3371 6.97367 36.627 6.97367H41.1684C41.4583 6.97367 41.6999 7.21523 41.6999 7.50511V9.66308C41.716 10.4039 41.5871 11.1447 41.3295 11.8372C41.0879 12.4813 40.7014 13.0611 40.2022 13.5442C39.6707 14.0435 39.0266 14.43 38.3341 14.6715C36.6431 15.203 34.8233 15.203 33.1163 14.6715C32.4399 14.4461 31.8118 14.0757 31.2965 13.5925C30.8134 13.1094 30.4269 12.5297 30.1853 11.8855C29.9276 11.193 29.7827 10.4522 29.7666 9.7114C29.7666 9.46983 29.7505 9.17996 29.7344 8.89008C29.7344 8.5841 29.7344 8.27812 29.7344 7.95603C29.7344 7.63395 29.7344 7.32796 29.7344 7.03809C29.7344 6.7321 29.7505 6.47443 29.7666 6.21677" fill="white"/>
<path d="M47.7776 6.82801C47.4394 6.81191 47.1174 6.87632 46.7953 6.98905C46.5376 7.08568 46.3121 7.23061 46.1189 7.42387C45.9417 7.58491 45.7968 7.79427 45.7002 8.01973C45.6036 8.21298 45.5391 8.42233 45.523 8.63169H49.9678C49.9356 8.42233 49.8873 8.21298 49.8229 8.01973C49.7424 7.79427 49.6296 7.60101 49.4686 7.42387C49.2914 7.23061 49.066 7.08568 48.8244 6.98905C48.4862 6.86022 48.1319 6.81191 47.7776 6.82801ZM42.9624 9.77509C42.9624 9.0665 43.0752 8.37402 43.3006 7.69764C43.51 7.06957 43.8321 6.48982 44.2669 5.99058C44.6856 5.50746 45.217 5.12095 45.7968 4.86328C46.4249 4.58951 47.1012 4.44457 47.7776 4.44457C48.454 4.42847 49.1304 4.57341 49.7585 4.84718C50.3382 5.10485 50.8697 5.47525 51.3045 5.94227C51.7232 6.4093 52.0614 6.94074 52.2868 7.5366C52.5123 8.14856 52.6411 8.79273 52.625 9.45301V10.3387C52.625 10.6286 52.3835 10.8702 52.0936 10.8702H45.523C45.523 11.144 45.5874 11.4177 45.7002 11.6593C45.829 11.8848 45.9901 12.078 46.1994 12.2229C46.4249 12.384 46.6664 12.4967 46.9241 12.5772C47.1979 12.6578 47.4878 12.69 47.7776 12.69C48.1158 12.7061 48.4701 12.6578 48.8083 12.5611C49.0338 12.4967 49.2592 12.384 49.4525 12.239C49.5652 12.1585 49.6779 12.078 49.8068 12.0136C49.9195 11.9653 50.0483 11.9492 50.1772 11.9492H51.7554C51.9003 11.9492 52.0453 12.0136 52.1419 12.1102C52.2546 12.2068 52.3029 12.3357 52.2868 12.4806C52.2385 12.7383 52.1419 12.9799 51.9809 13.1892C51.7554 13.5274 51.4655 13.8173 51.1273 14.0427C50.6925 14.3487 50.2094 14.5903 49.7101 14.7513C49.0821 14.9607 48.4218 15.0573 47.7776 15.0412C47.1012 15.0412 46.4249 14.9124 45.7968 14.6547C45.217 14.4131 44.6856 14.0427 44.2669 13.5757C43.8321 13.0765 43.51 12.5128 43.3006 11.8848C43.0591 11.2245 42.9463 10.4998 42.9624 9.77509Z" fill="white"/>
<path d="M57.3423 11.1925C57.3262 11.5468 57.4389 11.9011 57.6644 12.1588C57.8737 12.4003 58.2763 12.5292 58.8722 12.5292H60.0639C60.3538 12.5292 60.5953 12.7707 60.5953 13.0606V14.3651C60.5953 14.6549 60.3538 14.8965 60.0639 14.8965H58.5984C57.3584 14.8965 56.4243 14.5905 55.764 13.9947C55.1038 13.3988 54.7817 12.4809 54.7656 11.2569V7.0215H53.4611C53.3162 7.0215 53.1874 6.97318 53.0907 6.86045C52.9941 6.76383 52.9297 6.63499 52.9297 6.49006V5.18561C52.9297 5.04067 52.978 4.91184 53.0907 4.81521C53.1874 4.71858 53.3162 4.65417 53.4611 4.65417H54.7656V1.44941C54.7656 1.15953 55.0071 0.917969 55.297 0.917969H56.7947C57.0846 0.917969 57.3262 1.15953 57.3262 1.44941V4.65417H59.8706C60.1605 4.67027 60.3699 4.89573 60.386 5.18561V6.49006C60.386 6.77993 60.1444 7.0215 59.8545 7.0215H57.3101L57.3423 11.1925Z" fill="white"/>
<path d="M70.2788 9.75885L68.1047 4.15456L65.9467 9.75885H70.2788ZM69.1837 1.11085C69.3608 1.09474 69.5219 1.15916 69.6507 1.27189C69.7795 1.41683 69.8761 1.59397 69.9406 1.77112L74.7557 14.2197C74.7719 14.2681 74.7719 14.3164 74.7719 14.3486C74.7719 14.6385 74.5303 14.88 74.2404 14.88H72.8232C72.63 14.8961 72.4206 14.8478 72.2757 14.719C72.1791 14.6223 72.1146 14.5096 72.0663 14.3969L71.2128 12.2067H64.9966L64.143 14.3969C64.0947 14.5257 64.0142 14.6223 63.9337 14.719C63.7726 14.8478 63.5794 14.9122 63.3861 14.88H61.9689C61.6791 14.88 61.4375 14.6385 61.4375 14.3486C61.4375 14.3003 61.4375 14.2519 61.4536 14.2197L66.2688 1.77112C66.3332 1.59397 66.4298 1.41683 66.5587 1.27189C66.6875 1.15916 66.8646 1.09474 67.0257 1.11085H69.1837Z" fill="white"/>
<path d="M83.2029 10.3231C83.2351 9.95274 83.2351 9.58234 83.2029 9.22805C83.1224 8.37452 82.8647 7.76256 82.4138 7.39216C81.9629 7.00566 81.3831 6.8124 80.7873 6.82851C80.1914 6.8124 79.6117 7.00566 79.1608 7.39216C78.6937 7.81087 78.4361 8.40673 78.4039 9.01869C78.3716 9.26025 78.3555 9.51792 78.3716 9.75949C78.3716 10.0172 78.3877 10.2587 78.4039 10.5003C78.4361 11.1122 78.7098 11.692 79.1608 12.1107C79.6117 12.5133 80.1914 12.7227 80.7873 12.7066C81.3831 12.7227 81.9629 12.5133 82.4138 12.1429C82.8647 11.7725 83.1224 11.1606 83.2029 10.3231ZM81.3831 15.09C81.0127 15.09 80.6423 15.0578 80.2881 14.9773C79.9982 14.9129 79.7083 14.8162 79.4345 14.6874C79.2252 14.5747 79.0158 14.4458 78.8226 14.2848C78.6776 14.1721 78.5327 14.0432 78.4039 13.8983V18.0854C78.4039 18.3753 78.1623 18.6168 77.8724 18.6168H76.3908C76.1009 18.6168 75.8594 18.3753 75.8594 18.0854V5.18587C75.8594 4.89599 76.1009 4.65443 76.3908 4.65443H77.8885C78.1784 4.65443 78.42 4.89599 78.42 5.18587V5.63679C78.5488 5.49185 78.6776 5.36301 78.8387 5.25028C79.0319 5.10535 79.2413 4.97651 79.4667 4.86378C79.7405 4.73495 80.0304 4.63832 80.3203 4.57391C80.6746 4.49339 81.045 4.46117 81.4154 4.46117C82.0273 4.44507 82.6393 4.59001 83.2029 4.84768C83.7183 5.08924 84.1853 5.44353 84.5557 5.87835C84.9422 6.31317 85.2321 6.8124 85.4414 7.35995C85.6508 7.9236 85.7796 8.50335 85.8118 9.09921C85.8279 9.29246 85.8279 9.51792 85.8279 9.7917C85.8279 10.0655 85.8279 10.2909 85.8118 10.4842C85.7796 11.08 85.6669 11.6759 85.4414 12.2234C85.2321 12.771 84.9422 13.2702 84.5557 13.705C84.1853 14.1399 83.7183 14.478 83.2029 14.7357C82.6071 14.9773 81.9951 15.1061 81.3831 15.09Z" fill="white"/>
<path d="M94.3367 10.3233C94.3689 9.95286 94.3689 9.58246 94.3367 9.22817C94.2562 8.37464 93.9985 7.76268 93.5476 7.39228C93.0967 7.00578 92.5169 6.81253 91.9211 6.82863C91.3252 6.81253 90.7454 7.00578 90.2945 7.39228C89.8275 7.81099 89.5698 8.40685 89.5376 9.01881C89.5054 9.26037 89.4893 9.51804 89.5054 9.75961C89.5054 10.0173 89.5215 10.2588 89.5376 10.5004C89.5698 11.1124 89.8436 11.6921 90.2945 12.1108C90.7454 12.5134 91.3252 12.7228 91.9211 12.7067C92.5169 12.7228 93.0967 12.5134 93.5476 12.143C93.9985 11.7726 94.2562 11.1607 94.3367 10.3233ZM92.5008 15.074C92.1304 15.074 91.76 15.0418 91.4057 14.9613C91.1159 14.8969 90.826 14.8003 90.5522 14.6714C90.3267 14.5587 90.1174 14.4299 89.9402 14.2849C89.7953 14.1722 89.6504 14.0434 89.5215 13.8984V18.0855C89.5215 18.2305 89.4571 18.3593 89.3605 18.4559C89.2639 18.5526 89.135 18.617 88.9901 18.617H87.4924C87.2025 18.617 86.9609 18.3754 86.9609 18.0855V5.18599C86.9609 4.89611 87.2025 4.65455 87.4924 4.65455H88.9901C89.28 4.65455 89.5215 4.89611 89.5215 5.18599V5.63691C89.6504 5.49197 89.7953 5.36314 89.9402 5.25041C90.1335 5.10547 90.3428 4.97663 90.5522 4.8639C90.826 4.73507 91.1159 4.63845 91.4057 4.57403C91.76 4.49351 92.1304 4.4613 92.5008 4.4613C93.1128 4.44519 93.7247 4.59013 94.2884 4.8478C94.8037 5.08936 95.2708 5.44366 95.6412 5.87847C96.0277 6.31329 96.3175 6.81252 96.5269 7.36007C96.7362 7.92372 96.8651 8.50347 96.8973 9.09933C96.9134 9.29258 96.9134 9.51805 96.9134 9.79182C96.9134 10.0656 96.9134 10.2911 96.8973 10.4843C96.8651 11.0802 96.7524 11.676 96.5269 12.2236C96.3175 12.7711 96.0277 13.2703 95.6412 13.7052C95.2547 14.14 94.8037 14.4782 94.2884 14.7358C93.7247 14.9935 93.1128 15.1223 92.5008 15.1223" fill="white"/>
</svg>
